<svg xmlns="http://www.w3.org/2000/svg" xmlns:xlink="http://www.w3.org/1999/xlink" width="500" zoomAndPan="magnify" viewBox="0 0 375 374.999991" height="500" preserveAspectRatio="xMidYMid meet" version="1.2"><defs><clipPath id="917315bd24"><path d="M 72 93.417969 L 305 93.417969 L 305 281.667969 L 72 281.667969 Z M 72 93.417969 "/></clipPath></defs><g id="227212d39f"><g clip-rule="nonzero" clip-path="url(#917315bd24)"><path style=" stroke:none;fill-rule:nonzero;fill:#ffffff;fill-opacity:1;" d="M 149.613281 281.601562 C 146.558594 281.601562 143.722656 280.375 141.613281 278.152344 L 83.070312 216.488281 C 76.625 209.703125 69.914062 196.285156 73.609375 189.839844 C 75.652344 186.023438 79.382812 181.550781 85.714844 181.550781 C 90.777344 181.550781 96.609375 184.359375 102.566406 189.671875 C 114.617188 200.40625 125.300781 212.164062 132.378906 219.949219 C 140.925781 229.359375 142.613281 231.125 144.921875 231.125 C 146.710938 231.085938 146.710938 231.085938 153.769531 222.265625 C 173.773438 197.210938 234.65625 120.96875 294.074219 94.046875 C 295.019531 93.625 296.027344 93.40625 297.0625 93.40625 C 299.265625 93.40625 301.386719 94.378906 302.886719 96.054688 C 304.476562 97.847656 305.15625 99.945312 304.941406 102.125 C 304.734375 104.292969 303.648438 106.214844 301.914062 107.53125 C 299.550781 109.324219 296.808594 111.433594 293.734375 113.835938 C 239.195312 159.113281 181.226562 242.769531 158.839844 276.644531 C 156.785156 279.746094 153.335938 281.601562 149.613281 281.601562 "/></g></g></svg>