<svg xmlns="http://www.w3.org/2000/svg" xmlns:xlink="http://www.w3.org/1999/xlink" width="500" zoomAndPan="magnify" viewBox="0 0 375 374.999991" height="500" preserveAspectRatio="xMidYMid meet" version="1.2"><defs><clipPath id="fcda726746"><path d="M 8.234375 8.457031 L 367.484375 8.457031 L 367.484375 367.707031 L 8.234375 367.707031 Z M 8.234375 8.457031 "/></clipPath><clipPath id="35256df4de"><path d="M 8.234375 8.457031 L 367.484375 8.457031 L 367.484375 189 L 8.234375 189 Z M 8.234375 8.457031 "/></clipPath></defs><g id="14a9d063eb"><g clip-rule="nonzero" clip-path="url(#fcda726746)"><path style=" stroke:none;fill-rule:nonzero;fill:#ffffff;fill-opacity:1;" d="M 367.46875 188.070312 C 367.46875 287.269531 287.046875 367.695312 187.84375 367.695312 C 88.65625 367.695312 8.234375 287.269531 8.234375 188.070312 C 8.234375 88.867188 88.65625 8.457031 187.84375 8.457031 C 287.046875 8.457031 367.46875 88.867188 367.46875 188.070312 Z M 367.46875 188.070312 "/></g><g clip-rule="nonzero" clip-path="url(#35256df4de)"><path style=" stroke:none;fill-rule:nonzero;fill:#ed1c24;fill-opacity:1;" d="M 367.46875 188.070312 L 8.234375 188.070312 C 8.234375 88.867188 88.65625 8.457031 187.84375 8.457031 C 287.046875 8.457031 367.46875 88.867188 367.46875 188.070312 Z M 367.46875 188.070312 "/></g></g></svg>