<svg xmlns="http://www.w3.org/2000/svg" xmlns:xlink="http://www.w3.org/1999/xlink" width="500" zoomAndPan="magnify" viewBox="0 0 375 374.999991" height="500" preserveAspectRatio="xMidYMid meet" version="1.2"><defs><clipPath id="e8ba776a0c"><path d="M 3.425781 3.425781 L 371.574219 3.425781 L 371.574219 371.574219 L 3.425781 371.574219 Z M 3.425781 3.425781 "/></clipPath><clipPath id="e8a3018166"><path d="M 187.5 3.425781 C 85.835938 3.425781 3.425781 85.835938 3.425781 187.5 C 3.425781 289.164062 85.835938 371.574219 187.5 371.574219 C 289.164062 371.574219 371.574219 289.164062 371.574219 187.5 C 371.574219 85.835938 289.164062 3.425781 187.5 3.425781 Z M 187.5 3.425781 "/></clipPath><clipPath id="3419c0341d"><path d="M 90.488281 62.359375 L 284.738281 62.359375 L 284.738281 312.859375 L 90.488281 312.859375 Z M 90.488281 62.359375 "/></clipPath></defs><g id="9b728a82eb"><g clip-rule="nonzero" clip-path="url(#e8ba776a0c)"><g clip-rule="nonzero" clip-path="url(#e8a3018166)"><path style=" stroke:none;fill-rule:nonzero;fill:#5e5e5e;fill-opacity:1;" d="M 3.425781 3.425781 L 371.574219 3.425781 L 371.574219 371.574219 L 3.425781 371.574219 Z M 3.425781 3.425781 "/></g></g><g clip-rule="nonzero" clip-path="url(#3419c0341d)"><path style=" stroke:none;fill-rule:evenodd;fill:#f2613f;fill-opacity:1;" d="M 284.503906 293.730469 C 284.503906 226.945312 241.039062 172.839844 187.496094 172.839844 C 133.957031 172.839844 90.488281 226.945312 90.488281 293.730469 C 90.488281 304.144531 133.957031 312.636719 187.496094 312.636719 C 241.039062 312.636719 284.503906 304.144531 284.503906 293.730469 Z M 187.496094 62.363281 C 216.703125 62.363281 240.359375 86.019531 240.359375 115.222656 C 240.359375 144.429688 216.703125 168.085938 187.496094 168.085938 C 158.292969 168.085938 134.636719 144.429688 134.636719 115.222656 C 134.636719 86.019531 158.292969 62.363281 187.496094 62.363281 Z M 187.496094 62.363281 "/></g></g></svg>