<svg xmlns="http://www.w3.org/2000/svg" xmlns:xlink="http://www.w3.org/1999/xlink" width="500" zoomAndPan="magnify" viewBox="0 0 375 374.999991" height="500" preserveAspectRatio="xMidYMid meet" version="1.2"><defs><clipPath id="17a2d63ffc"><path d="M 12.023438 12.023438 L 363 12.023438 L 363 363 L 12.023438 363 Z M 12.023438 12.023438 "/></clipPath></defs><g id="ab5eef8f93"><path style=" stroke:none;fill-rule:nonzero;fill:#273376;fill-opacity:1;" d="M 329.007812 83.726562 C 308.503906 55.808594 279.949219 34.183594 246.757812 22.273438 L 246.757812 124.851562 L 329.007812 83.726562 "/><path style=" stroke:none;fill-rule:nonzero;fill:#273376;fill-opacity:1;" d="M 128.488281 124.855469 L 128.488281 22.171875 C 95.214844 34.050781 66.582031 55.679688 46.03125 83.625 L 128.484375 124.851562 L 128.488281 124.855469 "/><path style=" stroke:none;fill-rule:nonzero;fill:#273376;fill-opacity:1;" d="M 128.484375 250.105469 L 46.03125 291.335938 C 66.582031 319.28125 95.214844 340.910156 128.488281 352.785156 L 128.488281 250.105469 L 128.484375 250.105469 "/><path style=" stroke:none;fill-rule:nonzero;fill:#273376;fill-opacity:1;" d="M 246.757812 352.6875 C 279.949219 340.773438 308.503906 319.148438 329.007812 291.230469 L 246.757812 250.105469 L 246.757812 352.6875 "/><path style=" stroke:none;fill-rule:nonzero;fill:#ffffff;fill-opacity:1;" d="M 128.488281 124.855469 L 128.484375 124.851562 L 46.03125 83.625 C 40.179688 91.578125 34.984375 100.046875 30.523438 108.945312 L 68.5 127.917969 L 29.683594 127.917969 L 23.515625 124.855469 C 23.074219 126.015625 22.640625 127.175781 22.222656 128.34375 L 128.488281 128.34375 L 128.488281 124.855469 "/><path style=" stroke:none;fill-rule:nonzero;fill:#ffffff;fill-opacity:1;" d="M 246.757812 128.34375 L 266.226562 128.34375 L 335.746094 93.585938 C 333.609375 90.21875 331.359375 86.933594 329.007812 83.726562 L 246.757812 124.851562 L 246.757812 128.34375 "/><path style=" stroke:none;fill-rule:nonzero;fill:#ffffff;fill-opacity:1;" d="M 345.277344 246.855469 L 351.503906 249.945312 C 351.921875 248.839844 352.335938 247.730469 352.738281 246.613281 L 246.757812 246.613281 L 246.757812 250.105469 L 329.007812 291.230469 C 334.855469 283.261719 340.050781 274.78125 344.511719 265.863281 L 306.460938 246.855469 L 345.277344 246.855469 "/><path style=" stroke:none;fill-rule:nonzero;fill:#ffffff;fill-opacity:1;" d="M 68.488281 246.613281 L 22.222656 246.613281 C 24.566406 253.160156 27.289062 259.53125 30.363281 265.691406 L 68.480469 246.617188 L 68.488281 246.613281 "/><path style=" stroke:none;fill-rule:nonzero;fill:#ffffff;fill-opacity:1;" d="M 128.488281 250.105469 L 128.488281 246.613281 L 108.359375 246.613281 L 39.125 281.234375 C 41.308594 284.683594 43.613281 288.050781 46.03125 291.335938 L 128.484375 250.105469 L 128.488281 250.105469 "/><path style=" stroke:none;fill-rule:nonzero;fill:#ffffff;fill-opacity:1;" d="M 352.738281 128.34375 C 350.375 121.742188 347.625 115.328125 344.523438 109.117188 L 306.109375 128.34375 L 352.738281 128.34375 "/><path style=" stroke:none;fill-rule:nonzero;fill:#ffffff;fill-opacity:1;" d="M 246.757812 246.613281 L 352.738281 246.613281 C 355.476562 238.957031 357.707031 231.0625 359.371094 222.960938 L 223.101562 222.960938 L 223.101562 359.339844 C 231.207031 357.667969 239.105469 355.429688 246.757812 352.6875 L 246.757812 246.613281 "/><path style=" stroke:none;fill-rule:nonzero;fill:#ffffff;fill-opacity:1;" d="M 223.101562 152 L 359.371094 152 C 357.707031 143.894531 355.476562 136 352.738281 128.34375 L 306.109375 128.34375 L 306.101562 128.347656 L 266.222656 128.347656 L 266.226562 128.34375 L 246.757812 128.34375 L 246.757812 22.273438 C 239.105469 19.523438 231.207031 17.289062 223.101562 15.617188 L 223.101562 152 "/><path style=" stroke:none;fill-rule:nonzero;fill:#ffffff;fill-opacity:1;" d="M 152.140625 222.960938 L 15.589844 222.960938 C 17.253906 231.0625 19.484375 238.957031 22.222656 246.613281 L 68.488281 246.613281 L 68.859375 246.429688 L 108.734375 246.429688 L 108.359375 246.613281 L 128.488281 246.613281 L 128.488281 352.785156 C 136.140625 355.519531 144.035156 357.746094 152.140625 359.402344 L 152.140625 222.960938 "/><path style=" stroke:none;fill-rule:nonzero;fill:#ffffff;fill-opacity:1;" d="M 152.140625 152 L 152.140625 15.558594 C 144.035156 17.214844 136.140625 19.441406 128.488281 22.171875 L 128.488281 128.34375 L 22.222656 128.34375 C 19.484375 136 17.253906 143.894531 15.589844 152 L 152.140625 152 "/><g clip-rule="nonzero" clip-path="url(#17a2d63ffc)"><path style=" stroke:none;fill-rule:nonzero;fill:#d21d2c;fill-opacity:1;" d="M 223.101562 222.960938 L 359.371094 222.960938 C 361.726562 211.5 362.960938 199.636719 362.960938 187.480469 C 362.960938 175.324219 361.726562 163.457031 359.371094 152 L 223.101562 152 L 223.101562 15.617188 C 211.601562 13.246094 199.683594 11.996094 187.480469 11.996094 C 175.375 11.996094 163.558594 13.222656 152.140625 15.558594 L 152.140625 152 L 15.589844 152 C 13.234375 163.457031 11.996094 175.324219 11.996094 187.480469 C 11.996094 199.636719 13.234375 211.5 15.589844 222.960938 L 152.140625 222.960938 L 152.140625 359.402344 C 163.558594 361.738281 175.375 362.960938 187.480469 362.960938 C 199.683594 362.960938 211.601562 361.714844 223.101562 359.339844 L 223.101562 222.960938 "/></g><path style=" stroke:none;fill-rule:nonzero;fill:#d21d2c;fill-opacity:1;" d="M 68.5 127.917969 L 30.523438 108.945312 C 27.933594 114.109375 25.59375 119.417969 23.515625 124.855469 L 29.683594 127.917969 L 68.5 127.917969 "/><path style=" stroke:none;fill-rule:nonzero;fill:#d21d2c;fill-opacity:1;" d="M 266.222656 128.347656 L 306.101562 128.347656 L 306.109375 128.34375 L 344.523438 109.117188 C 341.855469 103.78125 338.925781 98.597656 335.746094 93.585938 L 266.226562 128.34375 L 266.222656 128.347656 "/><path style=" stroke:none;fill-rule:nonzero;fill:#d21d2c;fill-opacity:1;" d="M 345.277344 246.855469 L 306.460938 246.855469 L 344.511719 265.863281 C 347.09375 260.699219 349.429688 255.386719 351.503906 249.945312 L 345.277344 246.855469 "/><path style=" stroke:none;fill-rule:nonzero;fill:#d21d2c;fill-opacity:1;" d="M 108.359375 246.613281 L 108.734375 246.429688 L 68.859375 246.429688 L 68.480469 246.617188 L 30.363281 265.691406 C 33.027344 271.035156 35.953125 276.21875 39.125 281.234375 L 108.359375 246.613281 "/></g></svg>